<svg width="280" height="447" viewBox="0 0 280 447" fill="none" xmlns="http://www.w3.org/2000/svg">
<path d="M19.3867 138.58C20.1108 113.234 38.9396 55.1542 108.461 25.6075C195.364 -11.326 245.333 1.70934 236.642 38.6428C229.69 68.1896 165.672 114.682 134.532 134.235C180.88 120.476 274.445 107.296 277.921 164.651C282.266 236.345 119.324 334.111 58.4927 331.938C28.2703 330.859 19.3867 292.832 58.4927 271.106" stroke="white" stroke-width="4"/>
<path d="M132.36 442.436C103.392 449.678 46.3263 437.656 49.8024 331.636C53.2785 225.615 106.289 89.0334 132.36 33.9953" stroke="white" stroke-width="4"/>
<path d="M57.1958 234.347C41.974 242.813 30.5391 253.097 18.09 264.589C-10.1532 290.659 -3.63581 329.765 57.1958 331.938C118.027 334.11 280.969 236.346 276.624 164.651C273.148 107.296 179.583 120.476 133.235 134.235C164.375 114.682 228.393 68.1896 235.345 38.6428C244.036 1.70933 186.674 -13.8009 99.7713 23.1326C30.2495 52.6793 11.4206 95.5511 10.6964 120.898" stroke="white" stroke-width="4"/>
<path d="M57.1959 234.347C76.5077 223.606 101.915 215.79 143.222 212.145" stroke="white" stroke-width="4"/>
<path d="M132.36 432.082C106.489 439.14 55.5238 427.423 58.6283 324.09C61.7328 220.757 109.076 87.6382 132.36 33.9954" stroke="white" stroke-width="4"/>
</svg>
